<svg xmlns="http://www.w3.org/2000/svg" viewBox="0 0 300.49 144.34"><defs><style>.cls-1{fill:#fff;}</style></defs><g id="Layer_2" data-name="Layer 2"><g id="svg11836"><g id="g6327"><g id="g6375"><path id="path6377" class="cls-1" d="M85.21,107.64c5.8-2.27,12.28-8.46,15.14-16.83H86.71v-3h17.63a31.9,31.9,0,0,1-5,11.64c1.55,1.32,5.38,4.65,8.87,8.32l-2.47,2.67a75.08,75.08,0,0,0-8.18-8.58C95.68,104.05,92,108.1,87,110.28Z"/></g><g id="g6379"><path id="path6381" class="cls-1" d="M117.27,96.11a22.48,22.48,0,0,1,6.08,4,18.19,18.19,0,0,0,3.15-7.31h-9.18a21.23,21.23,0,0,1-6.9,6.78l-2-2.36c4.58-2.55,7-5.94,8.78-11l3.18.64c-.51,1.18-.82,1.91-1.39,3H130.2c-.69,4.4-2.94,17.27-18.41,21.13l-1.68-2.78a20.52,20.52,0,0,0,11.14-5.73,25.34,25.34,0,0,0-6-4.21Z"/></g><g id="g6383"><path id="path6385" class="cls-1" d="M132.2,106.72c9.89-.87,14.38-4.07,17.78-15.26l2.84,1.35c-3.57,10.63-8,15.84-19.89,17.27Zm19.7-16.8a23,23,0,0,0-1.37-4.3l2.13-.5a28.74,28.74,0,0,1,1.42,4.15Zm-3.83.58A26.59,26.59,0,0,0,146.83,86l2.16-.5a24,24,0,0,1,1.33,4.46Zm-10,9.29a40.57,40.57,0,0,0-7.37-3.26l1.2-2.91a40.63,40.63,0,0,1,7.37,3Zm2-6.51a41.48,41.48,0,0,0-7.32-3.06L134,87.28a47,47,0,0,1,7.39,2.94Z"/></g><g id="g6387"><path id="path6389" class="cls-1" d="M180.29,106.72c9.89-.87,14.37-4.07,17.78-15.26l2.84,1.35c-3.57,10.63-8,15.84-19.89,17.27ZM200,89.92a24.23,24.23,0,0,0-1.36-4.3l2.13-.5a28.39,28.39,0,0,1,1.41,4.15Zm-3.82.58A27.55,27.55,0,0,0,194.92,86l2.16-.5a24,24,0,0,1,1.33,4.46Zm-10,9.29a40.27,40.27,0,0,0-7.37-3.26l1.2-2.91a40.66,40.66,0,0,1,7.38,3Zm2-6.51a41.55,41.55,0,0,0-7.33-3.06l1.26-2.94a46.42,46.42,0,0,1,7.4,2.94Z"/></g><g id="g6391"><path id="path6393" class="cls-1" d="M224.73,89.16a23.3,23.3,0,0,0-1.13-4.08l2.15-.41a25.22,25.22,0,0,1,1.1,4ZM222,84.89a19.83,19.83,0,0,1,1.1,3.91l-.79.11v0h1.58c-.44,12.2-6.19,19.13-16,21.38l-1.65-3c4.23-.87,12.91-2.73,14.32-15.35H203.9V89h16.81a18,18,0,0,0-1-3.68Z"/></g><g id="g6395"><path id="path6397" class="cls-1" d="M245.84,97.57c0,4.41-.76,7.86-3.8,10.33-2.39,1.94-4.83,2.43-10.13,3l-1-3.08c6.71-.45,11.8-1.57,11.8-8.81V86.91h3.09Zm-13.24,5.08h-3V87.42h3Z"/></g><g id="g6399"><path id="path6401" class="cls-1" d="M262.74,85.57a23,23,0,0,1-1.08,3.56H273V91.9h-8.72v4h8.06v2.77h-8.06v4h8.06v2.75h-8.06v6.29h-2.82V91.9h-1a26.94,26.94,0,0,1-4,6l-1.79-2.39a22.92,22.92,0,0,0,5.18-10.29ZM251.43,97h-.05a17.34,17.34,0,0,1-2.31,2.6l-1.21-2.77c2.91-2.92,4.67-6.12,5.83-11.57l2.78.51a38.19,38.19,0,0,1-2.26,6.46v19.5h-2.78Z"/></g><path id="path6403" class="cls-1" d="M280.44,93.5h12.8V88.73h-12.8Zm-2.59-7.4h17.94V96.15H277.85Zm12.26,21.55h5.59V101h-5.59Zm-14.76-9.24h10.2v13H283v-1.15h-5.18v1.34h-2.5V98.41Zm2.5,9.24h5.2V101h-5.2Zm9.73-9.24h10.65V111.6h-2.52v-1.34h-5.6v1.34h-2.53Z"/><g id="g6405"><path id="path6407" class="cls-1" d="M155.3,105.92c7.93-5.76,10.6-11,11-11.86H155.16V91h13V86.27h2.92V91H177v3.16h-5.92v16.44h-3v-14s-2.37,5.73-11.11,12Z"/></g><g id="g6409"><path id="path6411" class="cls-1" d="M84.36,115.6H300"/></g><g id="g6413"><path id="path6415" class="cls-1" d="M84.84,115.42H300.49v.35H84.84"/></g><g id="g6417"><path id="path6419" class="cls-1" d="M86.73,42.65v.29l-.47.16-1.27,0-1.28,0L83.65,43l.58-.36c.85.15,1.6-.27,2.37-.05Z"/></g><g id="g6421"><path id="path6423" class="cls-1" d="M56.1,71.06l-.22.27-.42.55-.29.33-.89.71-.9.6A4.67,4.67,0,0,1,51,74.6l-1.15.12A5.43,5.43,0,0,1,48,74.36l-.58-.19A2.29,2.29,0,0,1,46,72.63l0-.21h0l-.05-.65-.07-.19-.12-1.43v-.21h0l0-1,.1-.21.1-.21h0l0-.33h0l.08-.27v-1l.1-.19,0-.24.06-.41h.05l0-.24h0l.07-.24v-.15h0l.05-.29h0l.45-.83.27-.35a3.93,3.93,0,0,1,2-.94l1.08-.37a12.49,12.49,0,0,1,1.71.3l1.23.59.73.79h0l0,.16h0l.23.42A11.94,11.94,0,0,1,56,70.15l0,.23h.05Zm1.85,0-.65-.36-.2-.16L57,70.46,56.86,70H56.8l-.07-1.15h0l-.05-.31-.08-.47-.09-.76h-.05L56.37,67h0l-.1-.31-.09-.37-.2-.58H55.9l-.12-.31c-.92-2.26-1.43-2.76-3.79-3.34l-.74-.24a6.27,6.27,0,0,0-2.34.26c-.57-.06-.87.26-1.25.47l-1,.68-.27.42-.07.21-.29.39-.15.18-.07.29h0L45.7,65V65l-.07.27h0l-.07.39h-.05v.13l0,.47h0l-.05.61h0l-.07.33h0l-.08.44h0l0,.32H45v.26h0l0,.45-.49.81h0l0,.26,0,.08.46.6h0v.19l0,.65.07.39.08.42,0,.13h0l0,.24.09.31.1.21.39.58.83.78.78.63a4.92,4.92,0,0,0,2.55.47c.56-.08,1.27-.06,1.64-.42l.69-.13.54-.16,1.14-.6.81-.61c.56-.3.83-.82,1.3-1.2l.44-.55.17-.15,1-.13.29-.4"/></g><g id="g6425"><path id="path6427" class="cls-1" d="M35.82,64l.07,0h0v0h0l-.17.66h-.05l-.07.39h0l-.07.49h0l0,.3-.08.44h0v.24h0l-.17.34-.29-.18,0-.21h0l.05-.74h0l.07-.33h0l0-.3H35l0-.38h.05l.12-.4,0-.16.1-.16v-.1l.05-.05.22-.16Z"/></g><g id="g6429"><path id="path6431" class="cls-1" d="M36.4,65.62l0,.11,0,.26h0l-.08.42-.41.12-.1-.54.1-.23Z"/></g><g id="g6433"><path id="path6435" class="cls-1" d="M37.31,66.17l.1.16v.42l-.17.15-.4-.36,0-.23.07-.07Z"/></g><g id="g6437"><path id="path6439" class="cls-1" d="M38.68,66.93l0,.29-.15.18-.41-.16-.1-.26,0-.28h.37Z"/></g><g id="g6441"><path id="path6443" class="cls-1" d="M48.54,69.2,48.39,69l0-.39.17-.08.08.08,0,.13-.07.44m.59-.67L49,68h0l0-.6-.15-.28-.39-.4c-.78-.26-1,.42-1.37.79l-.15.21L46.8,68h0v.16l-.07.23h0l0,1.07.09,1,.07.14.54.86,1-.06.3-.18.34-.62h0l.06-.29c-.06-.63.12-1.1.05-1.7"/></g><g id="g6445"><path id="path6447" class="cls-1" d="M27.94,73.29l.1.16.19.28.05.29-.29.34-1.4.37-.78-.4.1-.2h0l.08-.32h0l0-.29.27-.34,1.15-.24Z"/></g><g id="g6449"><path id="path6451" class="cls-1" d="M53.36,82.55c-1,0-2,0-2.94,0l-1-.13-.19-.18.16-.08,2.21.23a5.38,5.38,0,0,1,1.79.11Zm21,2.52c-.9-.32-1.95-.32-2.82-.66A12.5,12.5,0,0,0,69,84.14L68.14,84l-.84-.16a15.93,15.93,0,0,0-2-.2c-.59-.32-1.42-.11-2-.42-1-.06-1.74-.52-2.72-.4a14.12,14.12,0,0,0-2-.21c-.7-.21-1.57-.09-2.27-.23L55,82.24a13,13,0,0,0-2.86-.11,11.83,11.83,0,0,0-2.64-.26l-1.2-.18-.22.47h0l0,.26.58.68a4.51,4.51,0,0,0,2.42.26,11.49,11.49,0,0,0,1.94,0c.61.11,1.25,0,1.83.14l1.2.09c.78.06,1.54,0,2.3.11.59-.15,1.08.13,1.67.16l2.1.16c.71.23,1.56.1,2.27.28a9.39,9.39,0,0,1,1.94.19l1.37.13,1.15.24,1,.16c.74.25,1.61.23,2.36.49l1.26.26,1.06-.14,0-.07-.29-.54"/></g><g id="g6453"><path id="path6455" class="cls-1" d="M44.6,85.66a18.44,18.44,0,0,1,2.4.39l1,.24.66.24c.61,0,1.22.2,1.85.23l.52.58v.31c-.93-.05-1.71-.42-2.62-.52l-1.17-.27c-1.4,0-2.57-.81-4-.49l-.86-.55-.09-.32.92,0,1.35.11"/></g><g id="g6457"><path id="path6459" class="cls-1" d="M73.25,92.7a3.71,3.71,0,0,1-1.93-.1c-.89-.37-1.94-.6-2.84-.95v0l-1.25-.21A10.31,10.31,0,0,0,65.17,91l-1.12-.34c-1-.45-2.25-.81-3.3-1.18a17.69,17.69,0,0,1-2.84-.83l-1-.45,0-.07a5.12,5.12,0,0,1,1.5.26,14.91,14.91,0,0,0,2.44.7l.81.11a11.18,11.18,0,0,1,2.18.63,10.4,10.4,0,0,0,1.76.6c.83.31,1.78.49,2.62.78l1.54.31a11.92,11.92,0,0,1,1.71.45l.81.24,1,.39h0Zm1.37,0-.37-.42-.83-.6c-.54,0-.84-.34-1.37-.29a2.73,2.73,0,0,0-1.42-.47,23.88,23.88,0,0,0-3.16-.71l-1.12-.5-1.25-.39-.9-.36L63,88.57c-1.37-.45-2.83-.61-4.26-1a11.33,11.33,0,0,1-1.91-.41c-2.36-.37-4.54-1-6.84-1.53a12.63,12.63,0,0,0-1.86-.49L47.58,85a17.09,17.09,0,0,1-1.76-.34l-.59-.1L44,84.2a2.25,2.25,0,0,0-2,.18l-.09.13.07.4.66-.27,1,.27a14,14,0,0,1,2.4.57l.35.13.83.31a6.48,6.48,0,0,1,2.07.29,5.71,5.71,0,0,0,2.21.29l.27.18a3.92,3.92,0,0,1,1.37.5l-.47.24-.36.44.07,0c.65.23,1.35.34,2,.58a23.12,23.12,0,0,0,2.42.6c1.32.44,2.66.76,4,1.2a19,19,0,0,1,2,.6l.51.19c.65.1,1.1.49,1.79.52.73.21,1.46.4,2.18.63l1.51.4c1,.23,2,.41,2.88.72a7.78,7.78,0,0,1,1.77.16l1.2-.47v-.39"/></g><g id="g6461"><path id="path6463" class="cls-1" d="M26.74,89.11l.07.27-.17.15-1.3-.1,0-.32.15-.2,1-.11Z"/></g><g id="g6465"><path id="path6467" class="cls-1" d="M62.43,98.74l-.14,0-1.43-.63-1.27-.65-1.24-.66L57,96.26c-.63-.29-1.39-.45-2-.79a4.51,4.51,0,0,1-1.7-.79l-1-.33a9.8,9.8,0,0,0-1.47-.68L50,93.4l-1.39-.68L48,92.3l.17-.21c.83.09,1.39.61,2.24.71l.32.11a15.77,15.77,0,0,1,2.23.91,12.48,12.48,0,0,1,1.66.66l1.18.6.71.39a8.75,8.75,0,0,1,1.73.87l1.08.47.71.28,1.47.81,1,.71Zm3.16,1.36-.73-.57-.77-.71-1.54-1.07c-.66-.57-1.63-.84-2.32-1.41l-1-.5-.41-.18-.49-.3c-.56,0-.78-.44-1.25-.54l-1-.44-1.32-.53-1.15-.45L52.7,93a10.37,10.37,0,0,0-1.89-.82c-.63-.08-1.17-.36-1.76-.49L49,91.62l-1.47-.05-.27.32-.07.29h0l.15.52.74.66c.93.34,1.8.83,2.74,1.14l1.31.55c.49.4,1.3.45,1.86.74.5.47,1.35.44,1.92.86.9.1,1.38.71,2.29.81l.07.08,1.2.57.88.35a5,5,0,0,1,2,1,12,12,0,0,1,1.54.49l.51.3,1.15.12.13-.18,0-.08"/></g><g id="g6469"><path id="path6471" class="cls-1" d="M40.17,104.55h.1l.15.21a5.76,5.76,0,0,0,1.41.68l.57.5,0,.29-.05.1.53.32c.64.1,1,.42,1.62.54l.39.34.19.43.13.09.09.24,0,.39h.05c.94,1,1.46,1.87,2.37,2.88L48,112H48c.64.89,1.85,1.84,2.17,2.86l.27.41a7.14,7.14,0,0,1,1.13,2.13l.07,1,.07.37h0l.12.21.1.73h0l.18.42.1.21c.14.54.77.74,1,1.65l.07.16.09.38.06.22.07,1.07.24.63.15.26.22.29.54.47.81.81.12.24.09,1.07h0l-.07.36h0l0,.37h0l0,.05h0v.05h0l0,1.47.09,1.31.13.7,0,.32h0v.13l0,.47,0,.26h0l0,1.21.27.36,0,.45h0l-.05.36h0l0,.21h0l-.07.34-.27.27-.27-.14v-.36h.05l.08-.5.09-.5v-.15h0l0-.32-.62-.55,0-.31h0l.08-.29v-.4h0v-.31h0l0-.47-.11-.23-.07-.24-.07-.11-.08-.33h0v-.87l0-.52h0v-.87h0v-.93h0v-.45h0l-.14-.84h0l-.09-.18-.5-.5-.51-.52-.49-.63,0-.23h-.05l0-.24-.06-.62-.19-.51-.05-.39h0l-.1-.57L52.4,122l-.09-.21-.4-.73h0l-.12-.18-.22-.43-.08-.12L51.3,120h0l-.09-.26-.1-.34,0-.24H51l-.07-.68,0-.31-.1-1h0l-.09-.26-.25-.5-.15-.32h0l-.12-.18-.22-.39h0l-.13-.24a8.31,8.31,0,0,0-2.2-2.64l-.57-.75h0l-.2-.35c-.83-1.38-1.75-1.36-2.22-2.83L44,108h0l-.84-.47L41.91,107l0-.23h-.05l-.15-.35c-.61,0-.73-.52-1.12-.73l-1.07-.6-.22-.68.31-.13.59.31"/></g><g id="g6473"><path id="path6475" class="cls-1" d="M26.37,128.13l-.05.81h-.05l0,.23h0l-.08.89.05.1h0l0,1h0l-.09.36v.08l-.3.11-.32-.13-.22-.42-.09-.13-.13-.26-.12-.35-.25-.33,0-.08-.59-.81-.11-.14-.25-.49,0-.24h0l-.21-.36-.38-.11-.19-.16-.27-.36-.85-.73c-.59-.24-.91-.79-1.74-.71l-1,.32v.07l-1.29,0,0-.08,0-.39,1-.91.5-.4.76-.58.69-.68.78-.63.62-.44c.53-.21.95-.57,1.54-.76l.48.08.28.26.26.29.12.27.27.3.2.24.1.23.12.48h.05l.1.29.12.33.1.29h0l.07.37.07.15.05.19.17,1h0l.08,1.28h0l.12.63-.05.08Zm.52-.64-.05-.62-.12-.68h0l-.1-.63h-.05l-.05-.5h0l-.05-.23-.08-.68-.1-.27h0l-.15-.57L26,123H26l-.1-.45-.12-.23-.1-.23-.1-.22-.07-.07-.89-.81-.85-.56c-.93-.26-1.55.42-2.08.84l-.51.42-1,.45-.27.26-.26.26-.4.34-.49.39c-.53.26-.79.79-1.27,1.15l-.22.24c-.48.51-.89,1.07-1.37,1.6v.23h.05l0,.16.35.45a6.87,6.87,0,0,0,2.9-.24l1.06-.21c.58-.16.78.31,1.17.52l.57.58.65.44,0,.11h.05c.43.64,1,1.2,1.4,1.88l.24.45h0l.05.15.1.18h0l.13.37h0L25,132l.12.15,1,.53.49-.26.05,0,0-.24.1-1.15h0v-.47h0v-.81h0v-.31h0l0-.32h.05l.07-.52h0l0-.24h0v-.34l-.17-.45"/></g><g id="g6477"><path id="path6479" class="cls-1" d="M43.64,143.43l-.17.18-.63-.11a14.94,14.94,0,0,1-2.13-2.29l-.08-.08a1.88,1.88,0,0,0-1.61-.52l-1.25-.27c-.66-.15-1.17.24-1.78.08l-.23-.31,0,0h0l0-.44.17-.18.3-.24.31-.24,1-.83v-.06l.27-.34.73-.79.47-.38a2.85,2.85,0,0,1,1.63-1l.84-.08.78.69.15.18.09.15.25.63h0l.07.24.07.13.13.26.07.39,0,.36c.16.58,0,1.5.16,2.05l.08.42h0l.07,1.2h0l0,.62.07.38,0,.23m.81-.21-.1-1,0-.5h0l-.07-.34,0-.1-.22-1h0v-.12h0v-.81l0-1.07h-.05l0-.48-.08-.18-.1-.26h0l0-.32-.08-.12-.1-.22h0l-.07-.15-.22-.24-.49-.65-1-.92-.74-.16c-.73-.16-1,.4-1.63.56v0l-.79.58-1.22,1.2-.12.21v.1l-.1.19-.1.18-.73.89-.68.55-.33.47-.11.23-.37.45v.37l.14.21a2,2,0,0,0,2,.44l.86,0,1.39,0,0-.28h0l0,.23h0l.07.21h.15l.9.31v.05l.41.37.11.21.41.57.09.13.4.53h0l.41.42,1.18.33,1-.18.17-.34h0v-.6Z"/></g><g id="g6481"><path id="path6483" class="cls-1" d="M122.13,83.12l0,.21.17.94.08.32,0,.47h0l.13.49h0l0,.53h.05l0,.31h0l0,.21.22.82h0l0,.31.1.6h0l0,.41h.7l0-.33h0l0-.24-.07-.44h-.06l-.06-.31h0l-.1-.32-.07-.34,0-.57h0l-.08-.32h0l-.1-.34,0-.34-.07-.13-.18-.91,0-.32h0l0-.34-.08-.18-.1-.26h0l0-.34h-.05l-.08-.38-.19-.46-.1-.31h0l-.12-.4-.1-.21-.1-.21-.12-.29h0l-.13-.57h0l-.12-.52-.1-.3-.09-.18h0l-.12-.36-.1-.23-.18-.45-.09-.26h0l-.12-.55-.1-.24h0l-.09-.36h0l-.13-.5-.1-.18-.1-.21h0l-.13-.37-.09-.34-.1-.26-.2-.5-.09-.28-.15-.38h0l0-.25-.08-.29-.12-.55h0l-.07-.39-.07-.13-.08-.24h0l-.07-.39h0l-.06-.21-.06-.37-.1-.29h-.06l-.11-.39-.11-.23-.39-.63-.29-.34-.41-.61.05-.46.06-.32h0l0-.34-.23-.58-.1-.26h0l0-.15h0l-.12-.24h0l0-.16h0l-.17-.31a38.12,38.12,0,0,1-2.47-4.21l-.24-.5h-.06l-.22-.36a8.25,8.25,0,0,0-1.71-1.87l-.63-.52-.89.32.15.42,1,.55,1,.86.46.47.68.68-.22.29-.36.36-.15.16-.07.08.07.26.08.08,1,.37v0h0c.67.81,1.26,1.68,1.86,2.55l.1.23h0l.37.6v.29h0l0,.35h-.06l-.27.39,0,0,0,.12.32.58.53.56,0,.07.71.82.12.25h0l.25.61.11.15.13.39h0l.07.37,0,.39.09.45.13.23.15.29h0l.08.32h0l.08.52h0l0,.39h0l.07.31.08.16.07.37.1.26.14.21.13.31h0l.11.44c.22.64.57,1.24.83,1.91l.07.43h0l.08.36.14.57h0l0,.37h0l.13.45h0l.1.29.09.2.13.3.09.26h0l.25.52.14.39.1.24h0l.15.41.09.24.13.39Z"/></g><g id="g6485"><path id="path6487" class="cls-1" d="M47.76,33.78V34h0l0,.24h0l-.08.25-.14.19-.42.47-.93-.31-.27-.35-.14-.14-.1-.27L45.5,34l-.1-.36h.06v-.27h0l0-.57.18-.26.24-.34,1-.24.51.5.15.42h0l.12.65,0,.29Zm.61-.61-.08-.62-.09-.18-.2-.29,0,0-.22-.21-.4-.37c-.41-.26-1,0-1.54-.1l-.44.34-.25.31-.23.55h0l-.08.34h0v.52h0l.08.71h0l.12.57.09.27h0l.17.39.49.08,1.52.16.27-.22.37-.52.09-.16v0l.27-.52h0l0-.95"/></g><g id="g6489"><path id="path6491" class="cls-1" d="M87.19,38.67v0l-.39-.39-.17-.16-.42-.55,0-.08-.76-.71-.71-.59-.85-.77-.15-.21h0l0-.07-.15-.24,1,.47c.9,1.05,1.72,1.4,2.52,2.27l.12.37h0l0,.58,0,.05m-.59,2.57-.29-.08,0-.13.39-.13,0,0-.17.3m-20.3-3-.15-.36.71-.27.09.5-.65.13m-4.83.37-.22.31-1.07.71-1.59.62a16.73,16.73,0,0,0-2.4.9L55,41.53l-1.37.75-.32.18a6.67,6.67,0,0,0-2.32,1l-1.52.66a11.33,11.33,0,0,0-3.23,3l-.31.33-1-.33-.28-.44-.09-.22-.32-.39,0-.16h0l-.25-.36-.22-.42-.12-.31-.2-.37-.07-.31h0l-.1-.27,0-.18H43l-.08-.42-.07-.42h0l0-.37,0-1.22.05-.39-.05-.5v-.92h0l.07-.31v-.94h0v-.63h0L42.79,37h0l-.07-.38h0v-.53l.17-.13.58-.29.11-.15.14-.21v-.47h.08v-.24h.05l0-.47h0l0-.55-.17-.81-.34-.42-.52-.18v-.42h0l0-.29h0l0-.34H43l.59-1,.09-.23.13-.16.21-.4.15-.15,0-.26h0l-.07-.37-.07-.1-.15-.24-.12-.26h0v-.18h0a15.7,15.7,0,0,0,0-1.94l0,0,0-.14h0l0-.7h0l0-.39h-.05l-.1-.47,0-.21h-.05l0-.4h0l0-.57a12.42,12.42,0,0,1-.07-2.15l0-.86h0l.08-.24v-.89h0l.07-.52h0v-.42l.1-.05.2.16A14.61,14.61,0,0,0,45,20.22l.19.66h0l.12.42h0l.1.21,0,.11.05.36,0,0h0v.76h-.05l-.07.58.05,0h-.05l.05,0h-.05v.18h.05v.07h-.05v.52h0l0,.56h0l0,.84h0V26h-.05l0,1h0v.71h0l.15.16.51-.48V27.3h0v-.59l.08-.88v-.24h0l0-.7v-.4h0l0-.5h0l.07-.47V23h0l0-.73h0l0,0h0l.07-1.36h0l.08-.47v-.2h0l.08-.37h0l.07-.39h0l.07-.6h.06V18h-.06v-.37h.06l0,0h0l0-.37h0L47,16.8h0l.07-.34h0l.08-.28.12-.11.44.55.08.26.14.23.1.19.12.4h0l.12.23.07.26.08.18.07.47h0l.1.24.08.1.09.24.13.39h0l0,.29h.05l.12.31.25.42.1.29,0,.23h.05l0,.5h.05l0,.76a3.72,3.72,0,0,0,.63,2.33l.45.47a2.63,2.63,0,0,0,1.51,1l1,.68.71.63.17.33h0l.1.19a17.71,17.71,0,0,0,1.12,2.17l.25.26c1.39,2.7.83,1.36,2.66,3.22l.27.4.47.91h0l.12.37.1.36h0l.12.48h.05l.1.2L60,37l.07.16,0,.08,1.34.65.13.53-.13.24m-19-3.41-.12-.2-.07-.92,0-.39h0l.08-.32.19-.32.22-.28.1.14.12.14-.44.84.2.27.22.2.12.09,0,.31h0l-.22.31-.4.13M6.56,114.86l.93-.62c.65-.4,1.37-.75,2-1.16l.39.27,0,.18.05.55.1.76h0v.78h0l-.05,1,.05.24h0l.1.41,0,.34h0l0,1.26.1,1,.09.8,0,0h0l0,.07h0l0,0h0l0,.4-.13.12-.17,0-.37-.55,0-.11L9.37,120l-.29-.34-.22-.46h0l-.22-.37-.12-.11c-.19-.41-.78-.45-1.33-.41a12.32,12.32,0,0,0-1.83.49l-.81.42-1.22.6L3,119.75l0-.21h0l.08-.47.12-.26.1-.16v-.21l.15-.16.17-.46h0l.06-.24c1.46-2,.93-.56,2.23-2.14l.69-.58M73.83,35.27l.08-.05.34-.26h1v.15l-.31.27-1.11.16Zm38.92,23.52A12.37,12.37,0,0,1,111.12,57l-.33-1-.36-.29-.14-.26-.13-.52-1-1.28c-.58-.42-.88-1.12-1.56-1.44l-.81-.66-.17-.25.06-.13.15-.25v-.38l-1-.82-.52-.52-1.29-1.07a4.49,4.49,0,0,0-1.94-.63,12.82,12.82,0,0,1-2.06-.78l-1.29-.61-1.25-.8L97,44.87l-.07-.36,1.37.31.83,0,.05-.34L99,44.2l-1.08-.29-1.13-.16-1-.74.22-.16,1.6.3.58.1a4.71,4.71,0,0,0,1.66.32l.9-.27-.12-.23c-1.22-.11-2.25-.68-3.42-.83l-1.15-.46.54-.28a15.14,15.14,0,0,1,2,.15,10.93,10.93,0,0,1,3.22,1l1.28.61.39-.22V42.6l-.32-.27-1.08-.8c-.63.12-1-.52-1.61-.4a13.86,13.86,0,0,0-3-.34l-1.22-.18-.18-.24.18-.15,1-.08c.54-.08,1.08-.08,1.65-.13a8,8,0,0,1,2.63.08l.15-.11v-.26c-1.12-.5-2.39-.21-3.62-.32l-1.47.09-.14-.19,1.07-.6a13.92,13.92,0,0,0,2.06-.89,5.86,5.86,0,0,1,1.91-.34l1.24-.89.1-.18.33-.61.26-.44.07-.47h0l0-.34,0-.31.07-.84,0-.84.08,0-.08-.55.08-.31V30.61l0,0c0-.53,0-1.31,0-2l.13-.32,0-.55,0-1,0-.68,0,0c0-.65,0-1.25,0-1.88l0-.28c-.18-.91,0-3.38-.23-4.42l-.09-.59c0-.57-.1-1,0-1.62l-.1-.23,0-.58,0,0,0-1.07-.07-.21-.1-.18v-.61l0,0-.08-.77-.17-.36-.05-.53-.08-.54,0-.68V10.1l-.07,0,0-.06,0,0,0-.37h0l0-.86-.05,0,0-.8a36.48,36.48,0,0,0-1-5l-.22-.68c-.27-.6-.3-1.51-.74-2L100.16,0,98.85.29l-.14.29-.19.21-.2.34-.19.23-.32.56-.44.88L97,3.69l-.24.42-.27.49-.17.22-.15.23A9.86,9.86,0,0,1,95,6.65l-.22.4-.49.73c-1.68,3.16-3.26,6.34-4.89,9.49l-.17.32-.1.31c-1,4.36-2.63,7.19-4.65,11.12l0,.24-.22.36.12.34.1,1.47A20.47,20.47,0,0,0,85.79,33l.52.68c.24.85,1.06,1.57,1,2.52v.28l-.61-.31-.81-.63A4.81,4.81,0,0,0,84,34.28c-.29-.26-.54-.84-1.1-.58l-.22.42-.22.16-.34.44c.65.68,1.59,1.15,2.29,1.78l1,.84.93,1,.81.56.07.25.07.37-.07.18-.2.16-.49-.26-1-.78-.66-.6c-.54-.45-1.2-.71-1.76-1.16l-.89.19.59.57c.54.48,1.25.71,1.81,1.16l.17.33-.26-.05c-1.14-.11-2.16-.52-3.31-.65-.56,0-1-.37-1.57-.29-.68-.37-1.54-.16-2.22-.5l-.1-.12L77,37.55c-.76.12-1.49.1-2.27.15l-.52-.1-.88-.4,0-.59c.1-.71,1-.27,1.4-.74.77,0,1.27-.63,2-.63l.2-.39-1.15-.13,0-.11.22-.21,1.22-.47-.12-.23-.51.08-.91.37c-.66,0-1.23.1-1.88.13L73.46,34l-.48.66c-.17.4.27.62-.1,1.59l-.15,1.12-.74.19c-.77.15-1.56.1-2.32.28L68.41,38l-.23-.82,0-.46.08-.52,0,0,0-1.1,0-.16,0-.18,0-.47.13-.24,0-.41,0-.5,0-.37-.08-.21L68.35,32l-.14-.34,0-.68L67,30.17l-.77-.6a3.45,3.45,0,0,1-.2-2.83l.1-.23.17-.34a26.73,26.73,0,0,0,1-3l.07-.45.3-1.36h0l0-.26.09-.52c.48-1.58,1.13-3,1.65-4.58l.14-.35,0-.26c1.38-3.87,2.5-4.95,4.51-8.11L75,6.23l.59-.55.27.26c.32,1.14.51,2.32.73,3.48l0,1.47,0,0,.14.32c.15,1.14.29,2.28.35,3.43l0,.91c.16.75.22,1,.34,1.81l.1.28v.76l0,0c0,.68.1,1.2,0,1.88l0,.37.11.34V22l-.09.44,0,.66,0,.21,0,.65,0,0,0,.63,0,.66,0,.15.1.24,0,.79.06.23.11.23,0,.45.09.26,0,1.13h0l-.06.52-.43,1a2.59,2.59,0,0,1-2.06,1.15l-1.27.6-.63.63-.06.36.13.18,0,.4.28.16c.53-.16,1.09-.24,1.64-.42l.8-.16.88-.16L76,32.68l-.54,0,0-.16,1.23-.66a9.35,9.35,0,0,0,1.51-1.14l.25-.45c.47-.48.31-1.54.3-2.17v-.44l-.08-.37-.1-.4V25l0,0-.12-.42v-1.6l.08,0v-.58l0-1,0-.29-.13-.39V18.94l0,0,0-.24a32.73,32.73,0,0,0-.32-4.21l0-.39c-.32-.93,0-1.23-.36-2l0-.63-.12-.37c.07-.57-.08-1,0-1.64L77.26,9c-.19-2.38-.58-2.26-.88-4l-.13-.34-1,0-.51.57-.8.76-.08.1,0,.3-.15.25-.34.45-.66,1.07-.51.63c-.95.85-1,1.87-2,3l0,.29-.15.33c-.5,1.68-1.39,3.11-1.76,4.69l-.27.56,0,.28-.16.36-.11.16c-.54,1.93-1.14,2.41-1.35,4.63l-.07.55-.1.19c-.07,1.54-1.62,3.59-1,5l.13.32.14.28.32.55c.37.62,1.18.68,1.74,1.13l.51.42-.44.86-.74-.32a6.89,6.89,0,0,1-1.88-1l-1.39-.48-.53.24.63.55a2.27,2.27,0,0,1,1.51.66l-.51.49-.37.47,1.37.09c.64.18,1.45,0,2,.57l-.12.39-1.54.13-.73.26-.1.19.9-.05,1.35.05.07.54-.32.35c-.61.13-1.25.2-1.83.36l-.17.34.34.11L66.79,36l.51.13v.52l-.49.52-1.1.55-1.36.56-1,.57-.56.05,0-.57,0-.32-.07-.34-.1-.29L62,37l-1.24-.23,0-.24-.1-.36L60.16,35l-.08-.13-.22-.43a4.56,4.56,0,0,0-1.37-1.77l-.93-.74c-1.58-2-1.62-3-2.93-4.86L53.45,26A5.23,5.23,0,0,1,51,24.41l0-.33-.05-.35-.13-.33,0-.79-.13-.45v-.07l.05-.56-.09-.25-.11-.22-.09-.41-.13-.16L50.15,20,50,19.81l-.15-.39L49.61,19l-.12-.42,0-.34L49.32,18l-.42-1.1-.44-.76-.12-.37-.1-.34-.12-.23-.2-.55-.12-.2-.53-.14-.35.34c-.64.93-.77,4.25-1,5.07l-.24.11-.33-.57c-.43-.94-.73-1.67-1.07-2.62l-.54-.71-.39.08-.12.34-.1.5-.07.34-.1.6-.1.37-.07,1.22,0,0V20l-.1.52v1.25l0,0,0,.16v1l0,0,.05.81c.17.58.33,1.12.49,1.7l-.08.55c.08.68-.07,1.26,0,1.94l0,.42h0v.79c-1.44,2.53-1,1.81-1.37,3.95l0,.8-.08.06.08.41c0,.83.21,1.82.29,2.72l.11.43c0,.6-.06.93,0,1.56l-.07,0-.05.39a6.65,6.65,0,0,0,.16,3.67l.19.86h0l.15.55.44,1,.27.55.41.76-.63.76-.54.6-.39-.1,0,.08L42,48.25l-.51.44-.12-.44,0-.55L41,47.49l-.45.65-.27.68-.15.29c-1,.78-1.35,2.33-2.15,3.41l-.27.36-.09.29c-.32.81-.76,1.54-1.13,2.32l-.39.63-.17.48-.18.23a15.67,15.67,0,0,0-2.51,6.67l-.12.37-.05.76h0l0,.26,0,.26-.1.24-.05.68-.12.23L32,67.37l-.69.4-.93.41a20.33,20.33,0,0,0-3.42,1.08l-.44.33c-.78,0-1.17.63-1.69,1v.08l-.15.23,0,.39-.18.34,0,.82V73l0,.35.08.38,0,.71-.24.53-.46,1.12-.17.7-.05.11-.4.82-.32-.06-.83,0v0l-.71-.34-1,.21.05.37.34.18,1.34.39,1,.47.15.29.13.47v.86l-.06.24L23.1,81a19.68,19.68,0,0,0-2.11.47c-.88.23-1.62.68-2.47,1l-1.38.63v.34l.14.37,1.25-.37L20,82.68A17.61,17.61,0,0,1,23,81.76l.15.24.07.32-.07.39-.1.23-.05.29-.13.21-.09.39-.05.4-.1.17-.13.4-1,.68-.37.52,1.3-.13.54.52L23,87l.1.26.09.32.13.18.05.54.09.24.08.37.09.23.1.32.17.26-.12.37a4.81,4.81,0,0,1-1.62.52l-.9.34-.37.32-.1.41.1.68.07.24-.07,0-.51.71-.42.9-.34.59-.69.95-.78.41-1.1,1-.37.5-.07.21-.1.23-.15.26-.95.82-.34.63c-.25.75-1.1,1-1.46,1.69-.18.58-.92.63-1.16,1.13a19.51,19.51,0,0,0-1.59,1.41l-.9.71-.88.41.36.63-.53.74a4.47,4.47,0,0,0-1.37,1.33l-.42.52,0,.24.2.65-.09.16-.89,1-.26.37-.42.68-.07.36.12.21,0,.45-.51.73-.3.47-.27.39,0,.37-.12.47-.15.47-.93,1.07-.19.3-.11.25-.72,1-.28.63,0,.15-.08.4-.1.26-.09.37-.08.65,0,.94-.06.16.09.34-.61.76a10.94,10.94,0,0,1-.9,2l.09.16A5.22,5.22,0,0,1,0,128.36l0,.5.24.16.23-.4.09-.47,0-.42.12-.21.1-.28.1-.42-.05-.94.1-.29.12-.35.15-.31.32-.41v-.37l0-.34.08-.24.85-1L3,122l.14-.24v-.1l-.41-.71.14-.1a8.12,8.12,0,0,1,1.94-.68c.68-.32,1.44-1,2.28-.58l1.24,1,.27.39.1.29.09.26.91.86.88-.13.44-.71.1-.36.1-.34.12-.29v-1.75l-.08-.48,0-.36-.05-.65h0v-3.51l-.1-.31-.12-.29-.05-.26-.39-.71L9,112.48l-.24.21-1.27.68c-.52.26-.89.81-1.47.84l.22-.63.2-.53.09-.39,0-.49c.54-.34.93-.87,1.5-1.2l.09-.24-.53-.06-.37.08.14-.23.93-1c.71-.34,1-1,1.52-1.44l.19-.73-.61,0v-.14c2.21-1.91,2-3.13,5.24-5.22L16,100.55c.54,0,.61-.57,1-.76.75-.92,2.06-1.15,3-1.88a8.85,8.85,0,0,1,3-1l1.61-.42.8-.16,0,.58.38.12a4.56,4.56,0,0,0,2.58.71,1.85,1.85,0,0,1,1.84.13c.61.16.93.68,1.59.77L33,99l1,.78.8.7c.45.5,1.18.68,1.57,1.26l1,.63.85.47a18.23,18.23,0,0,0,1.69,1l.52-.11-.32-.67-1.22-.63-1.52-.94a9,9,0,0,1-1.76-1.28l-1.16-1-1.27-.92a15.1,15.1,0,0,1-1.81-.66,12.36,12.36,0,0,0-1.42-.6L28.67,97l-1.07-.47C27,96.65,27,96,26.52,96a8.69,8.69,0,0,0-1.91-.06c-.66-.08-1.1.55-1.74.26-.53,0-1,.29-1.51.32a8.08,8.08,0,0,0-1.91.94l-.95.5-1,.23.05-.34c.37-.68,1.17-.89,1.71-1.47l.22,0,.66-.76.1-.31.12-.18.44-.53.66-1,.88-.83.22-.53.34-.5.13-.46c.46-.42,1.17-.4,1.74-.61l.11-.21-.36-.57.22-.71c-.53-2-1.51-2.89-1.25-5.42l.13-.23,0-.37.1-.28.05-.34.12-.29v-.57l.1-.45.1-.81.12-.26v-.61l-.12-.31-.1-.37,0-.32.11-.49,0-.31h0l0-.32c.7-1.21.32-1.06.76-1.93l.61-.76-.17-.53-.15-.62-.07-1.37.61-1.45.86-.24,1.09.62c.72.14,1.06.82,1.55,1.16l.12.21.37.6.17.44-.07.11v.78l.22.24.63-.21V73.36L30.55,73l-.11-.34-.22-.42a6.46,6.46,0,0,0-1.35-1.31l-.35-.28-1-.65.95-.61.37.14,0,.25c.57.61,1.11-.41,1.79-.23l.17.34v.29l.52,0,1.63.11c.69.39-.38.52-.26,1l1.39.45-.07.23-.15.23,0,.24.83.3.27-.24-.64-.63.13-.47,0,0,0-.18L33.71,70l-.24-.34-.81-.29-.59-.47.1-.73,1.3-1,.36.19.37-.14,0-.15,0-.89.09-.16,0-.44.13-.48,0-.38.11-.16.06-.42.11-.26-.08-.42-.37.26-.09.23-.05.37-.1.29-.22.94-.12.34,0-.24.1-.31V64.6l0,0L34,63.5l.1-.31c.31-1.15.31-2.46,1-3.43l.43-.84.49-1.17c1-1.73,2-4.22,3-5.84l.37-.7.32-.32,0,.65.29.24.29-.57.37-.89.14-.3.18-.25.37-.13.36.41.56-.26.91-1.17.1-.16.09-.24.71-.7,1.4.18.07.13.13.5.76-.34a19.6,19.6,0,0,1,1.39-1.63,13.64,13.64,0,0,1,2.39-1.93l.24,0,.89-.13a15.48,15.48,0,0,1,2.22-1.23,8.32,8.32,0,0,1,1.87-.91c.53-.27,1.17-.27,1.68-.53.93-.23,1.64-.81,2.5-1.1.71-.13,1.22-.63,2-.6.69-.13,1.32-.47,2-.55a7.26,7.26,0,0,1,1.93-.31l.93-.24a6,6,0,0,1,1.91-.26,12.59,12.59,0,0,1,1.74-.26c.73-.26,1.39.21,2.13.13a21.2,21.2,0,0,1,6.18.5c.81.23,1.74.13,2.55.39l.61.08.71.1.37.5-.07.27.72.68-.87.44,0,.26c.51.34,1.25.13,1.86.18l1.1.08,1.1,0,.37.52.44.08.15-.24,0-.39.1-.6c.45-1.38.23-3.27.49-4.53V35.59c-3.14-6.68-4.12-3-.81-9.84l.17-.44c0-1.33,1.35-2.69,1.36-3.78L89,21l.18-.31.07-.48h0l0-.21c2.07-6.28,6.39-12.65,9.54-18.36L99.5.77l1,.1.1,1.33,0,0,.12.45.14.34.11.27.11.39.06.47.09.55.07.7.1.4v.65l0,0,.07,1h0l0,.86c.16.35.29,1.24.44,1.47v.71l0,0v2.22l0,.05,0,.34.09.26.08.37.09.66v.93l.11.27.07.55.09.41,0,.55.13.16-.08.15.08.58,0,1.54.07,0L103,21l.08.58h0l-.06.07c0,1.24.3,2.54.2,3.32l0,1.08-.07,0v.6l-.1.43v.73l0,0-.05.87.05.81v1.49l-.12.34.07.39v.69l-.07,0v.87l0,.57-.13.32,0,.52-.09.37-.18.55a2.78,2.78,0,0,1-2.34,1c-.54,0-.91.39-1.4.46a9.12,9.12,0,0,1-1.85.47A3.28,3.28,0,0,0,95.33,39l-.11.29c.14,3.31-1.48,4.72-1.5,6.49L94,46l.64-.47.12-.21.1-.32.88.23a4.18,4.18,0,0,1,1.76,1,13.38,13.38,0,0,0,3.15,1.61l.44.19c.57.07,1,.39,1.57.49.74.5,1.71.71,2.3,1.39l-.07.34-.83.13-.42.31,1.08.64,1.71,1a4.71,4.71,0,0,1,2.15,1.7l.12.34-.19.11a3.75,3.75,0,0,0-1.59-.37l-.49.34.68.37a5.11,5.11,0,0,1,2.48,1.3l1,1,.88.91.66.73.59.66H113l-.2-.5"/></g><g id="g6493"><path id="path6495" class="cls-1" d="M47,32.85l.1.16,0,.7,0,.42,0,.06-.61.18-.22-.16L46.14,34l-.22-.73.17-.21v-.09l.27-.12Z"/></g><path class="cls-1" d="M105,127.73a8.47,8.47,0,0,0-1.91-2,7.37,7.37,0,0,0-4.38-1.41,7.87,7.87,0,0,0,0,15.73,7.75,7.75,0,0,0,4.8-1.55,6.34,6.34,0,0,0,2.44-3.7H97v-2.7h12.8a11.61,11.61,0,0,1-.93,4.66A11.13,11.13,0,0,1,98.69,143a10.79,10.79,0,1,1,0-21.57,10.86,10.86,0,0,1,10,6.29Z"/><path class="cls-1" d="M112.4,142.61V121.84h3.31v8.76h9v-8.76H128v20.77h-3.32v-9.09h-9v9.09Z"/><path class="cls-1" d="M131.72,121.84H135v20.77h-3.31Z"/><path class="cls-1" d="M138.77,121.84H145a7.38,7.38,0,0,1,4.41,1.12,4.72,4.72,0,0,1,2.1,4.21,4.67,4.67,0,0,1-2.63,4.35,5.17,5.17,0,0,1,3.79,5.14,5.44,5.44,0,0,1-2.53,4.75c-1.46,1-2.7,1.2-5.25,1.2h-6.09Zm3.31,8.62h2.72a5.06,5.06,0,0,0,2.11-.34,2.64,2.64,0,0,0,1.4-2.55,2.6,2.6,0,0,0-1.4-2.45,4.87,4.87,0,0,0-2.19-.36h-2.64Zm0,9.23h3.34a6.21,6.21,0,0,0,2.22-.33,3.19,3.19,0,0,0,0-5.76,5.91,5.91,0,0,0-2.5-.36h-3.06Z"/><path class="cls-1" d="M155.39,121.84h3.31v17.85H166v2.92H155.39Z"/><path class="cls-1" d="M167.89,121.84h3.31v20.77h-3.31Z"/><path class="cls-1" d="M183.53,124.76h-4.78v-2.92h12.86v2.92h-4.77v17.85h-3.31Z"/><path class="cls-1" d="M193.44,121.84h5.87c3.26,0,4.94.45,6,1.21a6.67,6.67,0,0,1,2.75,5.61,7,7,0,0,1-1.18,4,5.65,5.65,0,0,1-4,2.27l4.89,7.72h-3.51l-5.7-9.37h.73c1.43,0,3.17-.06,4.16-.9a4.42,4.42,0,0,0,1.43-3.4,4.28,4.28,0,0,0-1.77-3.51,6.62,6.62,0,0,0-3.54-.67h-2.83v17.85h-3.32Z"/><path class="cls-1" d="M212.2,142.61h-3.59l8.53-20.77h3l8.39,20.77H225l-2-4.91h-8.87Zm6.32-16.93L215,135h7.07Z"/><path class="cls-1" d="M249,136.3a10.31,10.31,0,0,1-9.86,6.71,10.79,10.79,0,1,1,0-21.57,10.56,10.56,0,0,1,9.91,6.83H245.5a7.33,7.33,0,0,0-6.42-3.91,7.87,7.87,0,0,0,0,15.73,7.43,7.43,0,0,0,6.4-3.79Z"/><path class="cls-1" d="M252.16,121.84h3.32v9.83l7.61-9.83h3.5l-8.08,10.36,8.9,10.41h-4.07L255.48,133v9.57h-3.32Z"/><path class="cls-1" d="M269.07,121.84h11.62v2.92h-8.31v5.89h8.2v2.9h-8.2v6.14h8.31v2.92H269.07Z"/><path class="cls-1" d="M283.76,121.84h5.87c3.25,0,4.94.45,6,1.21a6.65,6.65,0,0,1,2.75,5.61,7,7,0,0,1-1.18,4,5.61,5.61,0,0,1-4,2.27l4.88,7.72h-3.5l-5.7-9.37h.73c1.43,0,3.17-.06,4.15-.9a4.39,4.39,0,0,0,1.43-3.4,4.25,4.25,0,0,0-1.77-3.51,6.58,6.58,0,0,0-3.53-.67h-2.84v17.85h-3.31Z"/></g></g></g></svg>